<svg xmlns="http://www.w3.org/2000/svg"  viewBox="0 0 100 100" width="200px" height="200px"><g id="Слой_2"><path d="M94.958,17.695c-0.015-0.225-0.026-0.359-0.029-0.388c-0.345-3.962-3.475-7.027-7.443-7.289 C87.309,10.006,87.132,10,86.957,10c-2.907,0-5.478,1.526-6.882,3.91c-0.053,0.001-0.108,0.001-0.165,0.001 c-1.317,0-2.981-0.17-4.59-0.335c-1.939-0.198-3.77-0.386-5.621-0.386c-2.52,0.005-5.081,0.172-7.624,0.494 c-3.8,0.481-7.51,1.607-11.028,3.348c-0.023,0.011-0.062,0.021-0.088,0.021c-0.026,0-0.064-0.009-0.087-0.02 c-3.518-1.74-7.227-2.867-11.027-3.348c-2.544-0.322-5.09-0.488-7.568-0.494c-0.001,0-0.002,0-0.002,0 c-1.907,0-3.738,0.188-5.676,0.386c-1.61,0.165-3.274,0.335-4.59,0.335c-0.058,0-0.115,0-0.169-0.001 c-1.408-2.389-3.977-3.91-6.88-3.91c-0.019,0-0.074,0-0.093,0.001c-3.764,0.044-7.025,2.755-7.756,6.447 c-0.192,0.969-4.64,23.95,0.431,42.157C9.914,67.123,16.808,72.218,24.959,76l7.459,11.514C34.889,90.365,38.47,92,42.242,92 h18.314c3.971,0,7.671-1.778,10.151-4.879l7.777-9.721c7.273-3.672,12.842-10.062,15.378-17.7 C99.543,42.593,95.562,20.757,94.958,17.695z" opacity=".35"/><path fill="#f2f2f2" d="M92.958,15.695c-0.015-0.225-0.026-0.359-0.029-0.388c-0.345-3.962-3.475-7.027-7.443-7.289 C85.309,8.006,85.132,8,84.957,8c-2.907,0-5.478,1.526-6.882,3.91c-0.053,0.001-0.108,0.001-0.165,0.001 c-1.317,0-2.981-0.17-4.59-0.335c-1.939-0.198-3.77-0.386-5.621-0.386c-2.52,0.005-5.081,0.172-7.624,0.494 c-3.8,0.481-7.51,1.607-11.028,3.348c-0.023,0.011-0.062,0.021-0.088,0.021c-0.026,0-0.064-0.009-0.087-0.02 c-3.518-1.74-7.227-2.867-11.027-3.348c-2.544-0.322-5.09-0.488-7.568-0.494c-0.001,0-0.002,0-0.002,0 c-1.907,0-3.738,0.188-5.676,0.386c-1.61,0.165-3.274,0.335-4.59,0.335c-0.058,0-0.115,0-0.169-0.001 C18.431,9.521,15.863,8,12.959,8c-0.019,0-0.074,0-0.093,0.001c-3.764,0.044-7.025,2.755-7.756,6.447 c-0.192,0.969-4.64,23.95,0.431,42.157c2.372,8.519,8.583,15.733,16.734,19.514l8.142,9.395C32.889,88.365,36.47,90,40.242,90 h18.314c3.971,0,7.671-1.778,10.151-4.879l7.777-9.721c7.273-3.672,12.842-10.062,15.378-17.7 C97.543,40.593,93.562,18.757,92.958,15.695z"/><path fill="#40396e" d="M84.957,13c-1.396,0-2.62,0.969-2.927,2.349c-0.121,0.546-0.347,1.561-4.12,1.561 c-1.572,0-3.365-0.184-5.1-0.361c-1.808-0.185-3.517-0.36-5.111-0.36c-2.319,0.005-4.657,0.158-6.996,0.454 c-3.246,0.411-6.422,1.376-9.439,2.869c-0.713,0.353-1.51,0.539-2.305,0.539c-0.795,0-1.592-0.186-2.305-0.539 c-3.017-1.493-6.192-2.458-9.437-2.869c-2.34-0.296-4.678-0.449-6.951-0.454c-1.642,0-3.35,0.175-5.159,0.36 c-1.734,0.178-3.528,0.361-5.099,0.361c-3.773,0-3.999-1.016-4.12-1.561C15.582,13.975,14.364,13,12.959,13 c-0.012,0-0.024,0-0.035,0c-1.419,0.016-2.633,1.025-2.908,2.417c-0.182,0.922-4.412,22.773,0.342,39.846 c2.084,7.484,7.648,13.688,14.962,16.734l8.877,10.242C35.717,83.994,37.921,85,40.242,85h18.314 c2.444,0,4.721-1.094,6.247-3.002l8.488-10.61c6.561-2.991,11.596-8.547,13.827-15.263c5.572-16.781,1.074-38.809,0.879-39.738 c-0.003-0.015-0.006-0.029-0.01-0.044c-0.018-0.357-0.036-0.569-0.039-0.603c-0.128-1.475-1.314-2.636-2.791-2.733 C85.09,13.002,85.023,13,84.957,13L84.957,13z"/><path fill="#40396e" d="M48.959,38l-33-12l-3-10c0,0-4.328,21.877,0.289,38.459c1.992,7.152,7.475,12.809,14.482,15.261L39.959,74 l-9.75-17.25L48.959,38z"/><path fill="#40396e" d="M85.06,17l-3,10l-33,12l18.674,18.674L57.941,75l13.995-6.292c5.805-2.61,10.328-7.488,12.333-13.528 C89.651,38.973,85.06,17,85.06,17z"/><path fill="#2785bd" d="M58.556,82H40.242c-1.45,0-2.829-0.63-3.778-1.725l-9.771-11.274c-1.105-1.275-1.622-2.955-1.425-4.631 L28.959,33h40l3.707,31.509c0.188,1.594-0.271,3.196-1.274,4.449L62.46,80.124C61.511,81.31,60.075,82,58.556,82z"/><path fill="#2b59a1" d="M84.959,16c-1.375,6.188-11.258,3.176-17.3,3.189c-2.201,0.005-4.397,0.154-6.579,0.43 c-2.953,0.374-5.818,1.262-8.486,2.582l0,0c-2.291,1.134-4.98,1.134-7.271,0l0,0c-2.667-1.32-5.532-2.208-8.484-2.582 c-2.182-0.276-4.379-0.426-6.58-0.43c-6.042-0.013-15.925,2.998-17.3-3.189c0,0-2,22,15,25c0,0,0.497-4.332,7.604-4.751 c0,0,0,0,0,0c6.396,0,12.697,3.401,13.396,3.751c0.7-0.35,7-3.751,13.396-3.751c0,0,0,0,0,0C69.462,36.668,69.959,41,69.959,41 C86.959,38,84.959,16,84.959,16z"/><path fill="#2785bd" d="M20.3,53.714C20.3,58.857,22.119,64,26.044,64h1.915c0-8.571,0-15,0-15c-7-3-7.858-9-7.858-9 C16.176,40,20.3,48.571,20.3,53.714z"/><path fill="#2785bd" d="M77.817,40c0,0-0.858,6-7.858,9c0,0,0,6.429,0,15h1.915c3.925,0,5.744-5.143,5.744-10.286 S81.742,40,77.817,40z"/><path fill="#f2f2f2" d="M63.706,70.021c-0.377-0.063-0.794-0.122-1.243-0.177L59.959,64c-0.345,2.763-1.171,4.436-2.099,5.464 c-5.122-0.279-11.679-0.279-16.801,0c-0.929-1.028-1.754-2.701-2.099-5.464l-2.504,5.844c-0.449,0.055-0.866,0.114-1.243,0.177 c-0.816,0.136-1.369,0.909-1.232,1.727c0.136,0.816,0.904,1.365,1.727,1.232c5.783-0.963,21.723-0.963,27.506,0 C63.296,72.993,63.379,73,63.461,73c0.72,0,1.355-0.52,1.478-1.253C65.075,70.93,64.522,70.156,63.706,70.021z"/><path fill="#f2f2f2" d="M42.959,56c0,0-5.114,0-8.909,0s-5.091-4-5.091-4s1.273-2,6.364-2C39.118,50,42.959,56,42.959,56z"/><path fill="#f2f2f2" d="M62.595,50c5.091,0,6.364,2,6.364,2s-1.296,4-5.091,4c-3.795,0-8.909,0-8.909,0S58.8,50,62.595,50z"/><circle cx="35.959" cy="53" r="3" fill="#70bfff"/><circle cx="61.959" cy="53" r="3" fill="#70bfff"/><path fill="#40396e" d="M58.451,47.59L58.451,47.59l-5.308,2.646c-1.517,0.756-2.134,2.599-1.377,4.116l0,0 c0.891,1.787,3.224,2.261,4.741,0.963l3.28-2.804C62.959,49,68.959,49,68.959,49C64.676,44.439,61.545,45.938,58.451,47.59z"/><path fill="#40396e" d="M39.951,47.59L39.951,47.59l5.308,2.646c1.517,0.756,2.134,2.599,1.377,4.116l0,0 c-0.891,1.787-3.224,2.261-4.741,0.963l-3.28-2.804C35.443,49,28.959,49,28.959,49C33.242,44.439,36.857,45.938,39.951,47.59z"/></g></svg>